<svg width="426" height="676" viewBox="0 0 426 676" fill="none" xmlns="http://www.w3.org/2000/svg">
<path d="M277.74 475.9C287.54 469.2 301.14 463.4 301.14 463.4C301.14 463.4 262.44 470.4 223.94 473.6C176.84 477.5 126.24 478.3 100.84 474.9C40.74 466.9 133.84 444.8 133.84 444.8C133.84 444.8 97.74 442.4 53.24 463.8C0.74004 489.2 183.24 500.8 277.74 475.9ZM192.34 443.8C173.34 401.1 109.24 363.6 192.34 298C296 216.2 242.84 163 242.84 163C264.34 247.5 167.24 273.1 132.14 325.6C108.24 361.5 143.84 400 192.34 443.8ZM306.94 267.6C307.04 267.6 131.74 311.4 215.44 407.8C240.14 436.2 208.94 461.8 208.94 461.8C208.94 461.8 271.64 429.4 242.84 388.9C215.94 351.1 195.34 332.3 306.94 267.6ZM300.84 538.1C300.294 539.053 299.621 539.927 298.84 540.7C427.14 507 379.94 421.8 318.64 443.4C315.329 444.617 312.469 446.814 310.44 449.7C314.02 448.404 317.698 447.401 321.44 446.7C352.44 440.2 396.94 488.2 300.84 538.1ZM348 600.4C348 600.4 362.5 612.3 332.1 621.6C274.2 639.1 91.3 644.4 40.5 622.3C22.2 614.4 56.5 603.3 67.3 601C78.5 598.6 85 599 85 599C64.7 584.7 -46.3 627.1 28.6 639.2C232.84 672.4 401 624.3 348 600.4ZM124.44 559C45.74 581 172.34 626.4 272.54 583.5C262.768 579.703 253.334 575.087 244.34 569.7C199.64 578.2 178.94 578.8 138.34 574.2C104.84 570.4 124.44 559 124.44 559ZM304.24 656.2C225.54 671 128.44 669.3 70.94 659.8C70.94 659.7 82.74 669.5 143.34 673.4C235.54 679.3 377.14 670.1 380.44 626.5C380.44 626.5 374.04 643 304.24 656.2ZM260.64 516C201.44 527.4 167.14 527.1 123.84 522.6C90.34 519.1 112.24 502.9 112.24 502.9C25.44 531.7 160.44 564.3 281.74 528.8C273.9 526.032 266.717 521.674 260.64 516Z" fill="black"/>
<path d="M129.297 43.256L98.1925 120.568C97.8512 121.421 97.3818 122.061 96.7845 122.488C96.1872 122.915 95.5045 123.128 94.7365 123.128C93.5418 123.128 92.6458 122.829 92.0485 122.232C91.4512 121.549 91.1098 120.739 91.0245 119.8C90.9392 119.373 90.9818 118.861 91.1525 118.264L124.944 35.576C125.371 34.6373 125.883 33.9973 126.481 33.656C127.163 33.2293 127.931 33.016 128.785 33.016C129.638 33.016 130.363 33.272 130.961 33.784C131.643 34.2107 132.155 34.808 132.497 35.576L166.161 117.88C166.331 118.392 166.417 118.904 166.417 119.416C166.417 120.611 166.033 121.549 165.265 122.232C164.497 122.829 163.601 123.128 162.576 123.128C161.723 123.128 160.955 122.915 160.273 122.488C159.675 121.976 159.206 121.336 158.865 120.568L126.993 42.744L129.297 43.256ZM105.617 97.144L108.817 89.592H148.497L150.033 97.144H105.617ZM233.932 28.28C235.041 28.28 235.937 28.664 236.62 29.432C237.388 30.1147 237.771 31.0107 237.771 32.12V119.16C237.771 120.184 237.388 121.08 236.62 121.848C235.852 122.616 234.956 123 233.932 123C232.822 123 231.884 122.616 231.116 121.848C230.433 121.08 230.092 120.184 230.092 119.16V103.928L232.268 102.136C232.268 104.525 231.628 107.043 230.348 109.688C229.068 112.248 227.233 114.637 224.844 116.856C222.54 119.075 219.809 120.867 216.652 122.232C213.58 123.597 210.252 124.28 206.668 124.28C200.95 124.28 195.788 122.787 191.18 119.8C186.657 116.813 183.073 112.76 180.428 107.64C177.782 102.52 176.46 96.6747 176.46 90.104C176.46 83.6187 177.782 77.816 180.428 72.696C183.073 67.4907 186.657 63.4373 191.18 60.536C195.702 57.5493 200.822 56.056 206.54 56.056C210.038 56.056 213.366 56.696 216.524 57.976C219.681 59.256 222.454 61.0053 224.844 63.224C227.318 65.4427 229.238 68.0027 230.604 70.904C232.054 73.72 232.78 76.664 232.78 79.736L230.092 77.816V32.12C230.092 31.096 230.433 30.2 231.116 29.432C231.884 28.664 232.822 28.28 233.932 28.28ZM207.308 117.112C211.916 117.112 215.926 115.96 219.34 113.656C222.838 111.267 225.569 108.067 227.532 104.056C229.58 99.96 230.604 95.3093 230.604 90.104C230.604 84.984 229.58 80.4187 227.532 76.408C225.569 72.312 222.838 69.112 219.34 66.808C215.841 64.4187 211.83 63.224 207.308 63.224C202.87 63.224 198.86 64.4187 195.276 66.808C191.777 69.112 189.004 72.312 186.956 76.408C184.993 80.4187 184.012 84.984 184.012 90.104C184.012 95.224 184.993 99.832 186.956 103.928C189.004 108.024 191.777 111.267 195.276 113.656C198.86 115.96 202.87 117.112 207.308 117.112ZM256.389 56.184C257.071 56.184 257.754 56.3973 258.437 56.824C259.119 57.2507 259.631 57.8907 259.973 58.744L282.373 111.992L280.708 113.016L303.621 58.744C304.303 57.0373 305.541 56.2267 307.333 56.312C308.186 56.312 308.997 56.6107 309.765 57.208C310.533 57.72 310.917 58.488 310.917 59.512C310.917 60.024 310.831 60.4507 310.661 60.792C310.575 61.048 310.49 61.3467 310.405 61.688L285.317 120.568C284.634 122.104 283.482 122.915 281.861 123C281.093 123.085 280.325 122.915 279.557 122.488C278.874 121.976 278.362 121.336 278.021 120.568L252.805 61.688C252.719 61.5173 252.634 61.2613 252.549 60.92C252.463 60.5787 252.421 60.2373 252.421 59.896C252.421 58.9573 252.762 58.104 253.445 57.336C254.127 56.568 255.109 56.184 256.389 56.184ZM326.699 123C325.248 123 324.139 122.531 323.371 121.592C322.603 120.653 322.219 119.459 322.219 118.008V115.32C322.219 113.784 322.603 112.589 323.371 111.736C324.139 110.883 325.248 110.456 326.699 110.456H327.595C329.045 110.456 330.155 110.883 330.923 111.736C331.691 112.589 332.075 113.784 332.075 115.32V118.008C332.075 119.459 331.691 120.653 330.923 121.592C330.155 122.531 329.045 123 327.595 123H326.699Z" fill="black"/>
</svg>
