<svg width="907" height="524" viewBox="0 0 907 524" fill="none" xmlns="http://www.w3.org/2000/svg">
<g clip-path="url(#clip0_15_403)">
<path d="M329.1 154.9C266.6 92.4 173.3 92.4 110.8 154.9C48.3 217.4 48.3 318.7 110.8 381.2C173.3 443.7 266.6 443.7 329.1 381.2C341.6 368.7 361.9 368.7 374.4 381.2C386.9 393.7 386.9 414 374.4 426.5C286.9 514 153.1 514 65.6 426.5C-21.9 339 -21.9 197.2 65.6 109.7C153.1 22.2 286.9 22.2 374.4 109.7C386.9 122.2 386.9 142.5 374.4 155C361.9 167.5 341.6 167.5 329.1 155V154.9Z" fill="black"/>
</g>
<path d="M595.154 156.154C595.154 146.112 587.041 138 577 138C566.959 138 558.846 146.112 558.846 156.154V237.846H477.154C467.112 237.846 459 245.959 459 256C459 266.041 467.112 274.154 477.154 274.154H558.846V355.846C558.846 365.888 566.959 374 577 374C587.041 374 595.154 365.888 595.154 355.846V274.154H676.846C686.888 274.154 695 266.041 695 256C695 245.959 686.888 237.846 676.846 237.846H595.154V156.154Z" fill="black"/>
<path d="M739.154 156.154C739.154 146.112 731.041 138 721 138C710.959 138 702.846 146.112 702.846 156.154V237.846H621.154C611.112 237.846 603 245.959 603 256C603 266.041 611.112 274.154 621.154 274.154H702.846V355.846C702.846 365.888 710.959 374 721 374C731.041 374 739.154 365.888 739.154 355.846V274.154H820.846C830.888 274.154 839 266.041 839 256C839 245.959 830.888 237.846 820.846 237.846H739.154V156.154Z" fill="black"/>
<defs>
<clipPath id="clip0_15_403">
<rect width="384" height="512" fill="white" transform="translate(0 12)"/>
</clipPath>
</defs>
</svg>
