<svg width="48" height="16" viewBox="0 0 48 16" fill="none" xmlns="http://www.w3.org/2000/svg">
<path d="M5.83391 0.999999C6.82057 0.999999 7.68057 1.18667 8.41391 1.56C9.16057 1.93333 9.77391 2.45333 10.2539 3.12C10.7339 3.77333 11.0872 4.52 11.3139 5.36C11.5539 6.2 11.6739 7.08 11.6739 8C11.6739 9.28 11.4606 10.4533 11.0339 11.52C10.6206 12.5733 9.98057 13.42 9.11391 14.06C8.26057 14.6867 7.16724 15 5.83391 15H0.733906C0.573906 15 0.433906 14.94 0.313906 14.82C0.193906 14.7 0.133906 14.56 0.133906 14.4V1.6C0.133906 1.44 0.193906 1.3 0.313906 1.18C0.433906 1.06 0.573906 0.999999 0.733906 0.999999H5.83391ZM5.63391 13.82C6.76724 13.82 7.68057 13.56 8.37391 13.04C9.06724 12.52 9.57391 11.82 9.89391 10.94C10.2272 10.0467 10.3939 9.06667 10.3939 8C10.3939 7.22667 10.3006 6.49333 10.1139 5.8C9.94057 5.09333 9.66057 4.47333 9.27391 3.94C8.90057 3.39333 8.40724 2.96667 7.79391 2.66C7.19391 2.34 6.47391 2.18 5.63391 2.18H1.25391L1.39391 2V14.02L1.27391 13.82H5.63391ZM23.8377 15.2C22.8243 15.2133 21.9443 15.0533 21.1977 14.72C20.451 14.3867 19.7377 13.8867 19.0577 13.22C18.991 13.1667 18.931 13.1 18.8777 13.02C18.8377 12.94 18.8177 12.8467 18.8177 12.74C18.8177 12.58 18.8777 12.4333 18.9977 12.3C19.131 12.1667 19.2777 12.1 19.4377 12.1C19.5977 12.1 19.7443 12.1667 19.8777 12.3C20.3977 12.86 20.9843 13.2867 21.6377 13.58C22.3043 13.8733 23.0177 14.02 23.7777 14.02C24.4177 14.02 24.9843 13.92 25.4777 13.72C25.9843 13.52 26.3843 13.2333 26.6777 12.86C26.971 12.4867 27.1177 12.0533 27.1177 11.56C27.1177 10.9467 26.951 10.4533 26.6177 10.08C26.2843 9.69333 25.8443 9.38 25.2977 9.14C24.751 8.88667 24.1443 8.66 23.4777 8.46C22.931 8.3 22.411 8.12 21.9177 7.92C21.4243 7.70667 20.9843 7.45333 20.5977 7.16C20.211 6.85333 19.911 6.48 19.6977 6.04C19.4843 5.6 19.3777 5.06667 19.3777 4.44C19.3777 3.73333 19.5643 3.10667 19.9377 2.56C20.311 2.01333 20.8377 1.58667 21.5177 1.28C22.211 0.959999 23.011 0.799999 23.9177 0.799999C24.7043 0.799999 25.4577 0.933332 26.1777 1.2C26.911 1.46667 27.491 1.86 27.9177 2.38C28.1177 2.59333 28.2177 2.78667 28.2177 2.96C28.2177 3.09333 28.151 3.22667 28.0177 3.36C27.8843 3.49333 27.7377 3.56 27.5777 3.56C27.4443 3.56 27.331 3.51333 27.2377 3.42C27.011 3.14 26.7243 2.89333 26.3777 2.68C26.031 2.45333 25.6443 2.28 25.2177 2.16C24.8043 2.04 24.371 1.98 23.9177 1.98C23.291 1.98 22.7243 2.08 22.2177 2.28C21.7243 2.46667 21.331 2.74 21.0377 3.1C20.7577 3.46 20.6177 3.89333 20.6177 4.4C20.6177 4.96 20.7777 5.42 21.0977 5.78C21.4177 6.14 21.8377 6.44 22.3577 6.68C22.8777 6.90667 23.431 7.12 24.0177 7.32C24.591 7.48 25.1377 7.66667 25.6577 7.88C26.191 8.08 26.6577 8.33333 27.0577 8.64C27.471 8.94667 27.791 9.33333 28.0177 9.8C28.2577 10.2667 28.3777 10.8533 28.3777 11.56C28.3777 12.24 28.1843 12.8533 27.7977 13.4C27.411 13.9467 26.8777 14.38 26.1977 14.7C25.531 15.02 24.7443 15.1867 23.8377 15.2ZM41.3569 2.54L36.4969 14.62C36.4435 14.7533 36.3702 14.8533 36.2769 14.92C36.1835 14.9867 36.0769 15.02 35.9569 15.02C35.7702 15.02 35.6302 14.9733 35.5369 14.88C35.4435 14.7733 35.3902 14.6467 35.3769 14.5C35.3635 14.4333 35.3702 14.3533 35.3969 14.26L40.6769 1.34C40.7435 1.19333 40.8235 1.09333 40.9169 1.04C41.0235 0.973333 41.1435 0.94 41.2769 0.94C41.4102 0.94 41.5235 0.98 41.6169 1.06C41.7235 1.12667 41.8035 1.22 41.8569 1.34L47.1169 14.2C47.1435 14.28 47.1569 14.36 47.1569 14.44C47.1569 14.6267 47.0969 14.7733 46.9769 14.88C46.8569 14.9733 46.7169 15.02 46.5569 15.02C46.4235 15.02 46.3035 14.9867 46.1969 14.92C46.1035 14.84 46.0302 14.74 45.9769 14.62L40.9969 2.46L41.3569 2.54ZM37.6569 10.96L38.1569 9.78H44.3569L44.5969 10.96H37.6569Z" fill="black"/>
</svg>
